<?xml version="1.0" encoding="UTF-8" standalone="no"?>
<!DOCTYPE svg PUBLIC "-//W3C//DTD SVG 1.1//EN" "http://www.w3.org/Graphics/SVG/1.1/DTD/svg11.dtd">
<svg version="1.1" xmlns="http://www.w3.org/2000/svg" xmlns:xlink="http://www.w3.org/1999/xlink" preserveAspectRatio="xMidYMid meet" viewBox="0 0 640 640" width="640" height="640"><defs><path d="M535.66 445.21C524.13 445.21 514.79 454.56 514.79 466.08C514.79 477.61 524.13 486.95 535.66 486.95C547.18 486.95 556.53 477.61 556.53 466.08C556.53 454.56 547.18 445.21 535.66 445.21Z" id="b4RHRgTU2j"></path><path d="M271.32 445.21C259.8 445.21 250.45 454.56 250.45 466.08C250.45 477.61 259.8 486.95 271.32 486.95C282.85 486.95 292.19 477.61 292.19 466.08C292.19 454.56 282.85 445.21 271.32 445.21Z" id="b120nAseN1"></path><path d="M598.26 382.61C598.26 357.57 598.26 157.23 598.26 132.18C598.26 97.66 570.18 69.58 535.66 69.58C523.13 69.58 422.96 69.58 410.44 69.58C400.87 69.58 392.52 76.09 390.2 85.38C387.68 95.46 375.08 145.84 352.41 236.53L333.92 236.53C333.92 224 333.92 217.05 333.92 215.66C333.92 204.13 324.58 194.79 313.05 194.79C301.53 194.79 292.19 204.13 292.19 215.66C292.19 218.87 292.19 244.55 292.19 247.76C267.26 262.21 250.45 289.17 250.45 320C250.45 324.38 250.45 359.45 250.45 363.84C235.04 366.98 220.85 373.53 208.71 382.66C208.71 370.14 208.71 269.92 208.71 257.39C208.71 236.06 180.3 228.53 169.72 247.04C153.03 276.26 19.47 509.99 2.77 539.2C-5.17 553.11 4.9 570.43 20.89 570.43C29.24 570.43 96.02 570.43 104.37 570.43C138.46 570.43 168.79 553.98 187.84 528.62C206.9 553.98 237.22 570.43 271.32 570.43C297.75 570.43 509.22 570.43 535.66 570.43C593.19 570.43 640 523.62 640 466.08C640 432.02 623.59 401.72 598.26 382.66C598.26 382.64 598.26 382.63 598.26 382.61ZM104.37 528.69C101.2 528.69 85.36 528.69 56.85 528.69L166.97 335.98L166.97 466.08C148.25 507.82 127.38 528.69 104.37 528.69ZM473.05 111.31L473.05 236.53L395.44 236.53L426.74 111.31L473.05 111.31ZM333.92 278.26C349.92 278.26 477.92 278.26 493.92 278.26C505.44 278.26 514.79 268.92 514.79 257.39C514.78 247.65 514.78 198.96 514.79 111.31C527.31 111.31 534.26 111.31 535.65 111.31C547.16 111.31 556.52 120.67 556.52 132.18C556.52 155.14 556.52 338.78 556.52 361.74C548.87 361.74 304.78 361.74 292.18 361.74C292.18 358.95 292.18 345.04 292.18 320C304.67 292.18 318.58 278.26 333.92 278.26ZM208.71 466.08C208.71 431.56 236.79 403.48 271.32 403.48C305.84 403.48 333.92 431.56 333.92 466.08C333.92 500.6 305.84 528.69 271.32 528.69C236.8 528.69 208.71 500.6 208.71 466.08ZM354.74 528.69C367.87 511.24 375.66 489.55 375.66 466.08C375.66 442.61 367.87 420.79 354.74 403.34C369.89 403.34 439.06 403.34 452.24 403.34C439.11 420.79 431.31 442.61 431.31 466.08C431.31 489.55 439.11 511.24 452.24 528.69C432.74 528.69 364.49 528.69 354.74 528.69ZM473.05 466.08C473.05 431.56 501.13 403.48 535.66 403.48C570.18 403.48 598.26 431.56 598.26 466.08C598.26 500.6 570.18 528.69 535.66 528.69C501.13 528.69 473.05 500.6 473.05 466.08Z" id="b6Ico1hDTw"></path></defs><g><g><g><use xlink:href="#b4RHRgTU2j" opacity="1" fill="#ffffff" fill-opacity="1"></use><g><use xlink:href="#b4RHRgTU2j" opacity="1" fill-opacity="0" stroke="#000000" stroke-width="1" stroke-opacity="0"></use></g></g><g><use xlink:href="#b120nAseN1" opacity="1" fill="#ffffff" fill-opacity="1"></use><g><use xlink:href="#b120nAseN1" opacity="1" fill-opacity="0" stroke="#000000" stroke-width="1" stroke-opacity="0"></use></g></g><g><use xlink:href="#b6Ico1hDTw" opacity="1" fill="#ffffff" fill-opacity="1"></use><g><use xlink:href="#b6Ico1hDTw" opacity="1" fill-opacity="0" stroke="#000000" stroke-width="1" stroke-opacity="0"></use></g></g></g></g></svg>